<svg id="Layer_1" data-name="Layer 1" xmlns="http://www.w3.org/2000/svg" width="200" height="200" viewBox="0 0 200 200"><defs><style>.cls-1{fill:#656668;}.cls-2{fill:#fff;}.cls-3{fill:#003777;}.cls-4{fill:none;}</style></defs><title>yonsei-university-logo-freelogovectors.net_</title><path class="cls-1" d="M127.83,131.3c0-.21,0-.42,0-.62H134v2.65h7v3.93c-1.32,0-2.65,0-4,0a7.71,7.71,0,0,1,2.78,4.26,6.89,6.89,0,0,1-1.89,6.26,9.92,9.92,0,0,1-10.59,2.06,8.16,8.16,0,0,1-4.75-4.65,6.65,6.65,0,0,1,.49-5.59,8.94,8.94,0,0,1,2-2.35c-1.2,0-2.4,0-3.61,0v-3.93H129a2.5,2.5,0,0,0-1.15-2m2.32,6.93a3.89,3.89,0,0,0-2.11,1.54,5,5,0,0,0,1,6.79,3.49,3.49,0,0,0,4.3-.13,5,5,0,0,0,.53-7,3.6,3.6,0,0,0-3.67-1.21m-94.09-5.88h6.18v22.52h-5v-8.11H30.82a9.68,9.68,0,0,1-5,3.37,10,10,0,0,1-8.37-1.4A8.63,8.63,0,0,1,13.79,143a8.2,8.2,0,0,1,1.52-6.06,9.57,9.57,0,0,1,7.18-3.83,9.82,9.82,0,0,1,7.89,3.19h6.84c0-1.18.1-2.72-1.14-3.33,0-.15,0-.46,0-.61m-14.17,4.49a4.85,4.85,0,0,0-3,3.44,5.52,5.52,0,0,0,2.21,6.09,3.8,3.8,0,0,0,4.42-.37,5.72,5.72,0,0,0,.26-8.21,3.87,3.87,0,0,0-3.93-.95m10.44,3.32a11.19,11.19,0,0,1,.09,2.71h4.79v-2.7H32.33m33.53-7.81h5.83q0,15.6,0,31.2H67q0-9.37,0-18.75c-1.65,0-3.31,0-5,0v-3.88h5c0-2,0-4,0-6a2.25,2.25,0,0,0-1.11-2v-.59m7.87,0h5v31.2c-1.67,0-3.34,0-5,0,0-10.4,0-20.81,0-31.22m28.33,0h5.83c0,2.85,0,5.7,0,8.55h2.21c0-2.85,0-5.71,0-8.56h5v31.2h-5q0-9.37,0-18.76h-2.23c0,6.25,0,12.5,0,18.75h-4.71v-6.18h-17V135.83a2.28,2.28,0,0,0-1.1-2.09c0-.2,0-.41,0-.61H99.22V137h-8v16.44h11.92V135.13a2.31,2.31,0,0,0-1.12-2.19v-.59m41.69,0c2.08,0,4.15,0,6.23,0,0,2.85,0,5.71,0,8.56h4.89v3.88H150v5.46h-5c0-5,0-10.06,0-15.09a2.33,2.33,0,0,0-.71-1.88,1.14,1.14,0,0,1-.47-.93m-90.48.81c2.43,0,4.86,0,7.29,0a25.94,25.94,0,0,1-3.13,12.37,42.86,42.86,0,0,1,7.37,6.74c-.88,1.33-1.84,2.6-2.77,3.9a34.37,34.37,0,0,0-6.61-7.47,26.69,26.69,0,0,1-6.34,6.47c-.8-.73-1.57-1.5-2.36-2.24a24.83,24.83,0,0,0,8.11-15.43c.18-1.39-.13-3.08-1.55-3.7v-.64m105.45.05h24.56v24.91h3V162H157.08v-3.94h5.26c0-2.52,0-5,0-7.55a5.25,5.25,0,0,0-.21-1.77c-.2-.63-1-.89-1-1.61,1.9,0,3.79,0,5.69,0v10.94h2.67c0-3.66,0-7.32,0-11,1.59.06,3.19,0,4.79,0,0,3.65,0,7.3,0,10.94h4c0-7,0-14,0-21H158.72v-3.91M124,152.86H150v10.65h-5V156.8H124v-3.94m-106.49.33c2.07,0,4.15,0,6.22,0v6.21H42.64c0,1.32,0,2.63,0,3.94H18.74v-7.26a2.41,2.41,0,0,0-.7-1.94,1.32,1.32,0,0,1-.49-.93m14.27,18.45c2.33-.39,5.08.1,6.57,2.1a6.42,6.42,0,0,1-1.87,9c-2.76,1.57-6.87,1.09-8.65-1.73a6.39,6.39,0,0,1,.22-7.15,5.81,5.81,0,0,1,3.73-2.2m-.26,1.1a3.37,3.37,0,0,0-2.12,2.62c-.54,2.42,0,5.51,2.42,6.75a3.56,3.56,0,0,0,3.79-.25A4.62,4.62,0,0,0,37,178.57a6.23,6.23,0,0,0-1.41-4.83,3.88,3.88,0,0,0-4.05-1m25.69-1a6.31,6.31,0,0,1,3.82.16c0,.87,0,1.74,0,2.61l-.6,0a2.27,2.27,0,0,0-.75-1.62c-.86-.62-2.45-.47-2.78.67s.78,1.84,1.52,2.42c1.32,1,2.84,2.19,2.9,4a3.25,3.25,0,0,1-2.15,3.36,5.82,5.82,0,0,1-4.41-.29c0-1,0-2,0-3,.82-.12.68.77.88,1.29a1.93,1.93,0,1,0,3.07-1.93c-1-1-2.21-1.62-3-2.76a3.46,3.46,0,0,1-.54-3,3,3,0,0,1,2-1.86m94.44.17a5.86,5.86,0,0,1,4.28,0c0,.88,0,1.76,0,2.64-.83.1-.64-.85-1-1.32a1.93,1.93,0,0,0-3-.09,1.55,1.55,0,0,0,.36,2c1.06,1,2.4,1.72,3.24,3a3.48,3.48,0,0,1-.48,4.61,5.32,5.32,0,0,1-4.38.74c-1.36-.24-3,.32-4.1-.73a27.9,27.9,0,0,1-3.08-4H142.2a36.49,36.49,0,0,0,.07,3.77c.37.46,1,.31,1.56.4,0,.13,0,.38,0,.51h-5.15v-.5c.42-.12,1.26,0,1.28-.6,0-3.07,0-6.15,0-9.23,0-.74-.87-.72-1.37-.85.05-.11.14-.33.18-.44,1.08-.07,2.17,0,3.26,0a7.73,7.73,0,0,1,3.75.52,2.7,2.7,0,0,1,1.27,2.89,5,5,0,0,1-1.87,2.82c1.43,1.64,2.55,3.67,4.47,4.79,0-.9,0-1.81,0-2.71l.6,0a3.46,3.46,0,0,0,.85,2.08c1,.87,3.09.49,3.25-1s-1.26-2.24-2.23-3a4.84,4.84,0,0,1-2.16-3.44,2.82,2.82,0,0,1,1.71-2.75m-9.49.78v5c.82,0,1.94.19,2.43-.68a3.32,3.32,0,0,0-.2-3.66,2.76,2.76,0,0,0-2.23-.7m-126.63-.95h4.34l0,.48-.61.23c.85,1.57,1.75,3.12,2.64,4.67a31.27,31.27,0,0,0,2.41-4.76l-.71-.11c0-.13,0-.38,0-.51h3.84c0,.12,0,.36,0,.49a2.25,2.25,0,0,0-1.86,1c-.92,1.33-1.73,2.74-2.53,4.15-.68,1.11-.38,2.46-.45,3.7.05.51-.14,1.18.32,1.55a4.85,4.85,0,0,0,1.32.2v.52H19.16c-.09-.88,1.23-.35,1.29-1.12s0-1.84.05-2.75c.09-1.68-1.2-2.94-1.94-4.34-.79-1.11-1.34-2.85-3-2.91,0-.13,0-.38,0-.51m26.19,0h.71c2.71,2.73,5.35,5.52,8,8.27,0-2.08,0-4.17,0-6.25,0-.42,0-.95-.37-1.23a3.53,3.53,0,0,0-1.16-.29c0-.12,0-.37,0-.49h4c0,.12,0,.36,0,.48-.51.09-1.25.17-1.22.85-.07,3.45,0,6.9,0,10.35-.38-.07-.85,0-1.11-.34-2.55-2.62-5.12-5.24-7.68-7.85.08,2.26,0,4.52.07,6.78.07.83,1,.8,1.68.86v.5H40.31c-.05-.84,1.12-.38,1.32-1.06a4.06,4.06,0,0,0,.13-1.2c0-3.12,0-6.25,0-9.37m21.77,0H71c0,.82,0,1.64,0,2.45a4.21,4.21,0,0,1-.48-.12c-.09-.45-.07-1.15-.67-1.22a22.73,22.73,0,0,0-2.61,0v3.84c.83,0,1.67,0,2.51,0,.54,0,.43-.67.53-1h.52c0,1.06,0,2.12,0,3.18l-.51,0c-.12-.34,0-1-.46-1a24.68,24.68,0,0,0-2.58,0c0,1.53,0,3.06,0,4.59a26.49,26.49,0,0,0,2.82-.05c.67-.14.73-.91.82-1.45l.55,0v2.6H63.77c0-.12,0-.37,0-.49.54-.06,1.33-.11,1.26-.85,0-3,0-6,0-9-.06-.73-.93-.72-1.47-.81v-.49m10.49,0h4.76c0,.12,0,.37,0,.49a6.33,6.33,0,0,0-1.07.21c-.3.27-.2.72-.24,1.08,0,2.85,0,5.69,0,8.53-.05.89,1.07.75,1.65.81v.52H74c0-.12,0-.37,0-.5.45-.12,1.26,0,1.27-.63,0-3.05,0-6.11,0-9.17.07-.72-.79-.75-1.29-.84,0-.13,0-.37,0-.49m10.69,0h4.76c0,.12,0,.37,0,.49-.43.13-1.22,0-1.27.6-.1,1.46,0,2.92,0,4.37a8.41,8.41,0,0,0,.59,4.07,2.83,2.83,0,0,0,4.77-.17,9.52,9.52,0,0,0,.42-3.68c0-1.52.07-3,0-4.54-.12-.59-.85-.53-1.3-.66,0-.12,0-.36,0-.48h4.22c.13.92-1.28.29-1.31,1.09-.18,2.43.18,4.9-.24,7.31a4.1,4.1,0,0,1-3.4,3.31,5.71,5.71,0,0,1-4.43-.89A4.81,4.81,0,0,1,86,179c-.07-2,0-4,0-6,.05-.73-.8-.73-1.3-.85,0-.12,0-.36,0-.48m14.08-.05c.35.06.79,0,1,.34,2.58,2.65,5.15,5.32,7.72,8,0-2.08,0-4.17,0-6.25,0-.43,0-1-.36-1.24a3.81,3.81,0,0,0-1.14-.28v-.49h4c0,.12,0,.36,0,.48-.5.09-1.24.18-1.22.85-.07,3.43,0,6.87,0,10.31H108c-2.65-2.71-5.29-5.43-8-8.12v6.08c0,.46,0,1.07.46,1.32a5.36,5.36,0,0,0,1.26.21c0,.12,0,.37,0,.5H97.34c-.08-.88,1.16-.35,1.33-1.06a4,4,0,0,0,.12-1.2c0-3.14,0-6.28,0-9.42m12.84.05h4.77v.5c-.42.12-1.21,0-1.24.59-.06,3.07,0,6.14,0,9.22-.08.89,1,.75,1.62.81l0,.52h-5.21c-.13-.94,1.34-.25,1.33-1.11,0-3.07,0-6.14,0-9.21,0-.72-.79-.72-1.29-.82,0-.12,0-.37,0-.49m5.17,0c1.44,0,2.89,0,4.33,0,0,.11.13.32.18.42a8.47,8.47,0,0,0-.86.25,8.27,8.27,0,0,0,.61,1.86l2.22,5.91c.65-1.56,1.24-3.14,1.86-4.71a18.28,18.28,0,0,0,1.08-3.12l-.85-.13c0-.12,0-.38,0-.5h11v2.38h-.52c-.11-.44,0-1.12-.58-1.26a18.59,18.59,0,0,0-2.69-.06v3.84a25.07,25.07,0,0,0,2.6-.05c.46-.08.31-.68.44-1h.52v3.15l-.51,0c-.1-.32-.05-.71-.29-1a16.94,16.94,0,0,0-2.76-.08v4.59a18.83,18.83,0,0,0,2.91-.08c.6-.2.62-.92.75-1.44h.5v2.59h-7.65c0-.12,0-.37,0-.49.48-.08,1.23,0,1.22-.73.09-2.87,0-5.76,0-8.64.24-1.59-2.38-1.63-2.77-.32-1.54,3.43-3.08,6.86-4.57,10.31h-.58c-1.39-3.47-2.85-6.9-4.3-10.34a1.59,1.59,0,0,0-1.43-.93v-.49m40.69,0h4.76v.5c-.42.12-1.21,0-1.23.6-.09,2.6,0,5.2,0,7.8a8,8,0,0,0,.09,1.83c.37.48,1.05.3,1.56.4,0,.12,0,.38,0,.51h-5.15c0-.12,0-.37,0-.5a9.38,9.38,0,0,0,1.06-.18c.36-.25.22-.76.27-1.12,0-2.85,0-5.7,0-8.54,0-.71-.83-.69-1.32-.81,0-.12,0-.36,0-.48m5.93,0h9.81c.12.8.23,1.61.35,2.42H173c-.16-.47-.22-1.19-.84-1.29a20.7,20.7,0,0,0-2.73-.05c0,3.08,0,6.16,0,9.24,0,.89,1.07.73,1.65.82v.51h-5.14v-.51c.45-.1,1.28,0,1.27-.64.05-3.14,0-6.28,0-9.42a13.67,13.67,0,0,0-2.86.1c-.52.17-.53.8-.69,1.24h-.61l.36-2.4m10.87,0h4.42c0,.42-.29.59-.65.7.78,1.61,1.75,3.11,2.61,4.68a28.17,28.17,0,0,0,2.41-4.78l-.7-.09c0-.13,0-.38,0-.51h3.84v.49a2.7,2.7,0,0,0-2.26,1.64c-.78,1.24-1.55,2.48-2.23,3.77a5.21,5.21,0,0,0-.34,2.54,11.76,11.76,0,0,0,.08,2.14c.25.62,1,.45,1.56.55v.51h-5.12c0-.12,0-.37,0-.49.51-.08,1.31-.12,1.24-.83-.05-1.55.36-3.29-.55-4.67s-1.73-3-2.77-4.36a2.19,2.19,0,0,0-1.58-.79v-.49Z"/><path class="cls-2" d="M94.35,17.86a51,51,0,1,0,27.21,4.44,51,51,0,0,0-27.21-4.44"/><path class="cls-2" d="M98.9,20.76l.47,0,4.77,5.57c0-1.52.26-3,.23-4.54-.26-.34-.71-.46-1-.73a6.93,6.93,0,0,1,2.87.31c-.39.14-1.06.15-1,.73-.17,2.16-.25,4.32-.41,6.48a1.5,1.5,0,0,1-.83-.47l-4.41-5.1c-.08,1.44-.24,2.87-.23,4.3,0,.58.8.49,1.15.68-.3.37-.82.17-1.22.19l-1.73-.1.12-.29c.31-.09.8-.09.83-.53.22-2.18.25-4.37.44-6.55"/><path class="cls-2" d="M91.86,21.78c.77-.57,1.82-.46,2.72-.75,0,.1,0,.3,0,.4l-.7.14c.13,1.79.9,3.52.75,5.33-.31,2.53-4.48,3.32-5.57,1-.65-1.53-.68-3.24-1.17-4.82-.21-.23-.57-.13-.84-.2l0-.27c1-.17,1.9-.44,2.87-.54l.26.19c-.25.18-.68.19-.81.5.15,1.11.43,2.19.63,3.28a3.75,3.75,0,0,0,.93,2.15,1.79,1.79,0,0,0,2.83-1,13.75,13.75,0,0,0-.47-3.36A7.52,7.52,0,0,0,92.79,22l-.93-.17"/><path class="cls-2" d="M109.52,21.85c.81.1,1.6.32,2.4.49.3.08.68.12.8.48l-1,0c-.47,1.79-.84,3.61-1.28,5.41a2.07,2.07,0,0,0-.09.89,3.28,3.28,0,0,0,.87.4l0,.3c-.92-.22-1.85-.41-2.77-.64a.79.79,0,0,1-.54-.37l1,0q.69-2.88,1.34-5.77c.23-.58-.51-.73-.74-1.14"/><path class="cls-2" d="M115.07,23.2A22.71,22.71,0,0,1,118,24.4a1.9,1.9,0,0,1-.77.19c-.16,1.74-.19,3.48-.29,5.21,1.21-1.22,2.46-2.42,3.64-3.67l-.46-.73a6.39,6.39,0,0,1,2.54,1.19c-.45,0-1-.14-1.35.22-1.88,1.62-3.62,3.38-5.51,5-.25-2.46,0-5,0-7.43,0-.46-.45-.77-.66-1.16"/><path class="cls-2" d="M76.44,27.18a25.65,25.65,0,0,1,3-1.59c0,.4-.33.64-.61.86.81,1.63,1.66,3.23,2.48,4.86a3,3,0,0,0,.53.8c.41-.06.81-.15,1.21-.21a17.62,17.62,0,0,1-3,1.73l-.16-.31.67-.46c-.88-1.81-1.81-3.6-2.74-5.38-.2-.54-.88-.2-1.3-.3"/><path class="cls-2" d="M124.2,27.69a3.37,3.37,0,0,1,1.1.52c1,.72,2.09,1.4,3.14,2.11l-.84,1.28-.26-.14c.06-.28.25-.56.17-.85a8.83,8.83,0,0,0-1.45-1.06l-1.37,2q.72.5,1.47,1c.26-.18.52-.35.8-.51A8.4,8.4,0,0,1,125.83,34l-.29-.18c.07-.17.19-.5.25-.66l-1.47-1c-.55.81-1.1,1.62-1.63,2.44a10.47,10.47,0,0,0,1.63,1c.42-.09.74-.42,1.16-.49a15.33,15.33,0,0,1-1,1.54c-1.31-.91-2.68-1.75-4-2.69,0-.09,0-.28,0-.38l.79.37c1.19-1.57,2.22-3.25,3.32-4.87.45-.5-.24-1-.47-1.38"/><path class="cls-2" d="M70.13,31.29c1.08-.8,2.17-1.6,3.24-2.42.34.44.66.87,1,1.32a.93.93,0,0,1-.87-.38,7.5,7.5,0,0,0-1.62,1.05l1.47,2c.47-.35.94-.7,1.4-1.08-.1-.28-.19-.56-.28-.84a3.23,3.23,0,0,1,1.43,1.82,2.24,2.24,0,0,1-.75-.39l-1.4,1,1.75,2.36A6.93,6.93,0,0,0,77,34.44a2.94,2.94,0,0,1-.07-1.18c.39.46.74.94,1.1,1.42q-1.62,1.2-3.24,2.43c-.3.19-.59.49-1,.38l.6-.73c-1.06-1.65-2.31-3.17-3.47-4.75-.33-.58-1-.09-1.45,0a2.8,2.8,0,0,1,.65-.72"/><path class="cls-2" d="M93.49,16.79A52.22,52.22,0,1,1,61.69,33a52.35,52.35,0,0,1,31.8-16.25"/><path class="cls-2" d="M90.28,42.67a51.43,51.43,0,0,1-17.07,3V64.12A51.16,51.16,0,0,0,73.78,72a145.7,145.7,0,0,1,52.59,0,53.13,53.13,0,0,0,.56-7c0-6.46,0-12.92,0-19.38a52.93,52.93,0,0,1-5.34-.3c-7.65-.85-15.33-3.21-21.5-7.92a36.9,36.9,0,0,1-9.8,5.25"/><path class="cls-2" d="M74.05,73.59A39.35,39.35,0,0,0,82.55,91q8.78-8.76,17.51-17.54,8.77,8.76,17.52,17.54a39.09,39.09,0,0,0,8.5-17.41,144.42,144.42,0,0,0-52,0"/><path class="cls-2" d="M86.88,95.34a55.93,55.93,0,0,0,13.17,8.32,54.81,54.81,0,0,0,13.22-8.33c-4.41-4.4-8.8-8.82-13.22-13.21q-6.58,6.61-13.17,13.22"/><path class="cls-2" d="M131.42,32.57c.91.81,1.77,1.67,2.6,2.57a1.85,1.85,0,0,1,.15,2.48,3,3,0,0,1-2.47.77c-.11,1.07-.27,2.14-.29,3.21,0,.57.35,1.06.35,1.63-.62-.6-1.49-1.16-1.52-2.11a21.28,21.28,0,0,1,.39-3.17l-.6-.59-1.74,1.74c.07.32.89,1,.33,1.08a11.11,11.11,0,0,1-2.3-2.55l.86.5A25.17,25.17,0,0,0,129.35,36c.76-.79,1.59-1.52,2.29-2.37,0-.38-.25-.71-.22-1.1"/><path class="cls-2" d="M130.48,36.9c.39.36.79,1,1.42.8a2.16,2.16,0,0,0,1.5-1.63c.11-.58-.34-1-.65-1.44-.78.74-1.51,1.52-2.27,2.27"/><path class="cls-2" d="M65,37.23c-.14-1.29.94-2.26,1.94-2.87.44.41.88.83,1.29,1.26-.57.26-1.12-.43-1.68-.1-.75.28-1.12,1.45-.27,1.84,1.05.29,2.12-.24,3.18-.1a2.18,2.18,0,0,1,2.09,2.28,3.5,3.5,0,0,1-2.18,2.65,5.29,5.29,0,0,1-1.47-1.62c.37.12.73.29,1.1.44,1,.5,2.28-1,1.49-1.84s-2-.26-2.9-.27A2.18,2.18,0,0,1,65,37.23"/><path class="cls-2" d="M61.49,40.27c.54-.17.07.49.07.73a8.67,8.67,0,0,0,2,1.39c1.3.81,2.61,1.61,3.91,2.43a2.76,2.76,0,0,1-1.73.7L60.06,46.8l3.11,1.93a2.11,2.11,0,0,0,.92.37c.32-.24.55-.62,1-.66A18.31,18.31,0,0,1,63.45,51c-.05-.45.26-1.08-.25-1.36-1.82-1.18-3.72-2.26-5.53-3.45a1.72,1.72,0,0,1,.89-.47c2.2-.48,4.4-.95,6.59-1.45-1.21-.73-2.39-1.52-3.63-2.22-.52-.35-.91.34-1.38.49a12.45,12.45,0,0,1,1.35-2.31"/><path class="cls-2" d="M135.68,43a2.33,2.33,0,0,1,2-2.32c1.4,0,2.26,1.33,2.62,2.51-.53.24-1,1-1.64.77.29-.42.79-.86.6-1.44s-1-1.32-1.62-.72-.35,1.75-.54,2.61a2.4,2.4,0,0,1-2.18,2.3,3.05,3.05,0,0,1-2.71-2.85c.55-.36,1.09-.74,1.63-1.1.22.44-.25.71-.44,1-.72.85.41,2.39,1.44,1.88s.72-1.78.87-2.68"/><path class="cls-2" d="M98.22,45.63a10.67,10.67,0,1,1-8.52,7.9,10.76,10.76,0,0,1,8.52-7.9"/><path class="cls-2" d="M98.88,50.84a5.44,5.44,0,1,0,6.52,4.21,5.48,5.48,0,0,0-6.52-4.21"/><path class="cls-2" d="M142,46.3a1.07,1.07,0,0,1,.53.54c.34.71.73,1.4,1,2.13,0,.08-.06.23-.09.31a4.25,4.25,0,0,0-.66-.68c-1.25.52-2.44,1.19-3.66,1.76a11.55,11.55,0,0,0-2,1.09c-.08.3.49,1.17,0,1a29.47,29.47,0,0,1-1.34-2.7c0-.11,0-.33,0-.44.19.24.39.47.6.7a6.14,6.14,0,0,0,1.54-.65c1.32-.69,2.69-1.28,4-2,.41-.23.07-.75.08-1.1"/><path class="cls-2" d="M117.1,53.33c.28-1.1,1.28-1.77,2.08-2.48-.11.57-.43,1.17-.21,1.75.6,1.08,1.9,1.56,2.5,2.64.1,1.12-.91,1.92-1.57,2.7l1.17,0c-.14.45-.28.89-.43,1.34-1.43,0-2.87,0-4.3,0-.13-.45-.27-.89-.4-1.34.51,0,1,0,1.54,0-.14-1.22-1.64-1.54-2.07-2.58,0-.87.7-1.48,1.2-2.09a2.09,2.09,0,0,0,.42,1.37c.54.63,1.47.88,1.85,1.65.06.66-.45,1.17-.74,1.72.94.13,1.38-.93,1.42-1.69-.43-1.3-2.38-1.5-2.46-3"/><path class="cls-2" d="M56.84,51.39a4.06,4.06,0,0,1,5.07,3A4.29,4.29,0,0,1,59.65,59a4,4,0,0,1-5.3-2.55,4.47,4.47,0,0,1,2.49-5"/><path class="cls-2" d="M56.58,52.92a2.51,2.51,0,0,0-1.67,2.71,2.35,2.35,0,0,0,1.37,1.61,4.32,4.32,0,0,0,3.37.35,2.55,2.55,0,0,0,1.7-2.47A2.36,2.36,0,0,0,60,53.35a4.42,4.42,0,0,0-3.39-.43"/><path class="cls-2" d="M143.29,52.43c.54-.11,1.08-.18,1.63-.26.58,2,1.18,4,1.77,6-.51.22-1,.45-1.52.65.06-.4.4-.64.61-.95a6.64,6.64,0,0,0-.43-1.85c-1.87.56-3.76,1.09-5.62,1.67-.62.09-.25.75-.26,1.15l-.27.13c-.33-1.07-.64-2.13-.95-3.2l.31-.06.41.73,6-1.75a9.78,9.78,0,0,0-.56-1.71c-.3-.31-.86-.15-1.1-.56"/><path class="cls-2" d="M78.27,54.91c.87.16,2-.33,2.7.35a34.72,34.72,0,0,1,0,5.2c-.9,0-1.8,0-2.7,0-.08-1.84-.09-3.7,0-5.54"/><path class="cls-2" d="M82.09,55a11.61,11.61,0,0,1,2.43,0c0,1.82,0,3.63,0,5.44-.93.06-1.85,0-2.78,0-.08-1.46,0-2.92,0-4.38,0-.37-.06-1,.41-1.08"/><path class="cls-2" d="M76.91,55.81h.67c0,1.7,0,3.41,0,5.12h3.09c.19.25.33.58.67.65s.52-.38.72-.65c1,0,2,0,3.07,0,0-1.73,0-3.47,0-5.2l.68.17c0,1.89.07,3.79,0,5.68-1.06,0-2.13,0-3.2,0a1.48,1.48,0,0,1-2.43,0c-1.09,0-2.17,0-3.26,0-.06-1.92-.07-3.85,0-5.78"/><path class="cls-2" d="M117.26,59.91a10.45,10.45,0,0,1,2.5,0c-.27,1.58-.51,3.16-.75,4.74-.35,0-1,.25-1-.3-.28-1.47-.46-3-.71-4.43"/><path class="cls-2" d="M52.75,62.85a6.56,6.56,0,0,1,.38-2.76c.16.45.16,1,.58,1.32.74.65,1.55,1.2,2.35,1.78s2,.58,3,.68c.68.14.64-.77,1-1.1a12.2,12.2,0,0,1-.42,3.53c-.2-.31-.09-1-.61-1-1-.11-2.14-.42-3.09.12s-1.85.86-2.72,1.39c-.45.25-.58.81-1,1.11,0-1,.15-2,.26-3l.49.5c1-.43,2-.9,3-1.36-.9-.6-1.77-1.26-2.73-1.77l-.54.55"/><path class="cls-2" d="M146.92,60.14a9.29,9.29,0,0,1,.44,3l-.52-.42c-.94.6-1.84,1.26-2.74,1.91A24,24,0,0,0,147,65.83l.57-.51c.07.89.2,1.77.21,2.67-.4-.44-.62-1.06-1.19-1.3a25.24,25.24,0,0,0-3-1.4,8.75,8.75,0,0,0-2.55.16c-.61,0-.42.82-.54,1.23-.4-.44-.27-1.09-.37-1.63s-.28-1.31,0-1.91c.2.29.23,1,.73.87,1.11-.07,2.34,0,3.2-.84,1-.93,2.63-1.5,2.84-3"/><path class="cls-2" d="M57.77,79.37A1.45,1.45,0,1,1,58,81.92a1.46,1.46,0,0,1-.21-2.55"/><path class="cls-2" d="M141.65,79.39a1.47,1.47,0,1,1-.58,2.45,1.47,1.47,0,0,1,.58-2.45"/><path class="cls-2" d="M128.93,96.88l4.16-5c1.68,1.4,3.39,2.79,5.06,4.21l.55-.62.79.68-5,6-.82-.66.94-1.16-1.85-1.52-.61,0c.33-.4.66-.81,1-1.21l2.23,1.85.42-.49L133.61,97l.83-1,2.23,1.85c.21-.25.42-.51.64-.76L133,93.57c-1.11,1.34-2.2,2.69-3.33,4l-.77-.69"/><path class="cls-2" d="M64.87,92.68a2.46,2.46,0,0,1,3.56.65A5.45,5.45,0,0,1,69,95.1a13.44,13.44,0,0,0,1.15,1.35,5.47,5.47,0,0,0,.53-1c.35.43.72.85,1.09,1.27l-4.51,3.93-.89-1c.53-.49,1.07-1,1.61-1.44-.35-.41-.71-.81-1.07-1.22a2.9,2.9,0,0,1-2.12-.92,2.44,2.44,0,0,1,.1-3.42"/><path class="cls-2" d="M66.23,93.36a1.31,1.31,0,0,0-.65,2.16,1.35,1.35,0,0,0,2.19-1.09,1.18,1.18,0,0,0-1.54-1.07"/><path class="cls-2" d="M68,96.62l.81.93.53-.44c-.29-.32-.56-.64-.84-1l-.5.47"/><path class="cls-2" d="M95.06,92.26a34.87,34.87,0,0,1,.12,3.84l.74.34a15.89,15.89,0,0,1-2.39,0c.26-.11.52-.23.78-.33,0-1,.07-1.93.07-2.9l-.91.24a5,5,0,0,1,1.59-1.19"/><path class="cls-2" d="M96.6,93.3a1.38,1.38,0,0,1,2.48-.44c.21.52-.19,1-.54,1.3.37.31.84.66.77,1.22,0,1.45-2.62,1.66-2.89.23-.13-.58.37-1,.77-1.33-.24-.29-.59-.56-.59-1"/><path class="cls-2" d="M97.34,93.3c.1.35.49.48.75.69.16-.37.53-.9.09-1.22s-1,.08-.84.53"/><path class="cls-2" d="M97.68,94.44c-.27.37-.71.84-.42,1.34a.66.66,0,0,0,1.21,0c.27-.6-.39-1-.79-1.29"/><path class="cls-2" d="M100.26,93.32c0-1.18,2-1.44,2.46-.46a1.22,1.22,0,0,1-.54,1.29c.37.33.83.68.78,1.24-.09,1.4-2.46,1.63-2.87.35-.21-.62.29-1.12.74-1.45-.23-.3-.59-.56-.57-1"/><path class="cls-2" d="M101,93.12c-.1.46.44.64.73.87.14-.35.42-.71.24-1.09s-1-.27-1,.22"/><path class="cls-2" d="M101.57,96.18c1-.26.48-1.47-.25-1.75-.59.47-.76,1.7.25,1.75"/><path class="cls-2" d="M104.09,92.37l2,0c0,.36-.09.71-.15,1.07l-.38-.45-1.18,0c0,.64.77.61,1.16.93a1.38,1.38,0,0,1,.16,2.15,2.27,2.27,0,0,1-2,.42c0-.41,0-.82,0-1.23.25.32.37.91.87.88.71,0,1-.88.65-1.39s-.83-.56-1.29-.76c0-.54.1-1.08.16-1.62"/><path class="cls-2" d="M63.31,95.42c.34.43.7.85,1.06,1.26l-1.24,1.08,3.29,3.78-.81.68-4.16-4.78c.65-.64,1.56-1.1,1.86-2"/><path class="cls-2" d="M119,103.83l1.51-.75c.34.69.68,1.39,1,2.09l1.17-.57c.14.28.27.57.42.86L122,106c.21.45.43.9.65,1.36l-1.21.58c-.55-1.13-1.09-2.28-1.65-3.41a1.62,1.62,0,0,0-.72-.72"/><path class="cls-2" d="M79.42,103.36l1.84.85a7.74,7.74,0,0,1-2.11,2.64,15.18,15.18,0,0,1,1,2.43l-1.1.63a12.94,12.94,0,0,0-.75-2.51,10.93,10.93,0,0,1-2.27.86c-.11-.27-.22-.54-.32-.81a6.75,6.75,0,0,0,3.71-2.94c.25-.36.06-.77,0-1.15"/><path class="cls-2" d="M116.84,105.16l1.67-.8.45,1-.83.39a2,2,0,0,1,1.39,2.11,2.53,2.53,0,0,1-3.83,1.71,2.1,2.1,0,0,1-.68-2.33l-.73.36c-.14-.32-.3-.63-.44-1,.61-.3,1.22-.59,1.84-.87-.22-.16-.44-.32-.67-.47l1.52-.73c.1.21.21.41.31.63"/><path class="cls-2" d="M116.77,106.67a1.2,1.2,0,0,0-.12,2.12,1.14,1.14,0,0,0,1.71-.76,1.21,1.21,0,0,0-1.59-1.36"/><path class="cls-2" d="M82.6,104.57c.44.23.9.44,1.36.65l-3.46,7.53-1.09-.51c.69-1.5,1.38-3,2.08-4.51l-1.26-.58c.14-.32.29-.64.44-1l1.25.58a4.1,4.1,0,0,0,.68-2.2"/><path class="cls-2" d="M84.43,105.43l1.23.57q-1.74,3.75-3.46,7.52L81,113c1.15-2.51,2.31-5,3.46-7.54"/><path class="cls-2" d="M116.68,111l6.21-3c.42.85.83,1.71,1.23,2.56l-1.22.58c-.25-.53-.51-1.07-.77-1.6-1.65.81-3.33,1.57-5,2.41l-.48-1"/><path class="cls-2" d="M100.35,108.55l1.53,0v2.24h.59v-2.24h1.33c0,2.75,0,5.5,0,8.26h-1.33v-5h-.59v5c-.42,0-.83,0-1.25,0v-1.64H96.15c0-1.78,0-3.56,0-5.34a2.13,2.13,0,0,0-.32-1.1c1.25,0,2.5,0,3.75,0v1h-2.1v4.36c1,0,2.1,0,3.15,0,0-1.51,0-3,0-4.54a2.21,2.21,0,0,0-.28-1.06"/><path class="cls-3" d="M94.35,17.86a51.08,51.08,0,1,1-32.58,17,51,51,0,0,1,32.58-17m4.55,2.9c-.19,2.18-.22,4.37-.44,6.55,0,.44-.52.44-.83.53l-.12.29,1.73.1c.4,0,.92.18,1.22-.19-.35-.19-1.16-.1-1.15-.68,0-1.43.15-2.86.23-4.3l4.41,5.1a1.5,1.5,0,0,0,.83.47c.16-2.16.24-4.32.41-6.48,0-.58.63-.59,1-.73a6.93,6.93,0,0,0-2.87-.31c.32.27.77.39,1,.73,0,1.51-.18,3-.23,4.54l-4.77-5.57-.47,0m-7,1,.93.17a7.52,7.52,0,0,1,.46,1.81,13.75,13.75,0,0,1,.47,3.36,1.79,1.79,0,0,1-2.83,1A3.75,3.75,0,0,1,90,26c-.2-1.09-.48-2.17-.63-3.28.13-.31.56-.32.81-.5L89.88,22c-1,.1-1.91.37-2.87.54l0,.27c.27.07.63,0,.84.2.49,1.58.52,3.29,1.17,4.82,1.09,2.37,5.26,1.58,5.57-1,.15-1.81-.62-3.54-.75-5.33l.7-.14c0-.1,0-.3,0-.4-.9.29-2,.18-2.72.75m17.66.07c.23.41,1,.56.74,1.14q-.65,2.9-1.34,5.77l-1,0a.79.79,0,0,0,.54.37c.92.23,1.85.42,2.77.64l0-.3a3.28,3.28,0,0,1-.87-.4,2.07,2.07,0,0,1,.09-.89c.44-1.8.81-3.62,1.28-5.41l1,0c-.12-.36-.5-.4-.8-.48-.8-.17-1.59-.39-2.4-.49m5.55,1.35c.21.39.61.7.66,1.16.06,2.47-.23,5,0,7.43,1.89-1.6,3.63-3.36,5.51-5,.36-.36.9-.18,1.35-.22a6.39,6.39,0,0,0-2.54-1.19l.46.73c-1.18,1.25-2.43,2.45-3.64,3.67.1-1.73.13-3.47.29-5.21a1.9,1.9,0,0,0,.77-.19,22.71,22.71,0,0,0-2.88-1.2m-38.63,4c.42.1,1.1-.24,1.3.3.93,1.78,1.86,3.57,2.74,5.38l-.67.46.16.31a17.62,17.62,0,0,0,3-1.73c-.4.06-.8.15-1.21.21a3,3,0,0,1-.53-.8c-.82-1.63-1.67-3.23-2.48-4.86.28-.22.62-.46.61-.86a25.65,25.65,0,0,0-3,1.59m47.76.51c.23.41.92.88.47,1.38-1.1,1.62-2.13,3.3-3.32,4.87l-.79-.37c0,.1,0,.29,0,.38,1.29.94,2.66,1.78,4,2.69a15.33,15.33,0,0,0,1-1.54c-.42.07-.74.4-1.16.49a10.47,10.47,0,0,1-1.63-1c.53-.82,1.08-1.63,1.63-2.44l1.47,1c-.06.16-.18.49-.25.66l.29.18A8.4,8.4,0,0,0,127,32c-.28.16-.54.33-.8.51q-.75-.47-1.47-1l1.37-2a8.83,8.83,0,0,1,1.45,1.06c.08.29-.11.57-.17.85l.26.14.84-1.28c-1-.71-2.1-1.39-3.14-2.11a3.37,3.37,0,0,0-1.1-.52m-54.07,3.6a2.8,2.8,0,0,0-.65.72c.46-.09,1.12-.58,1.45,0,1.16,1.58,2.41,3.1,3.47,4.75l-.6.73c.39.11.68-.19,1-.38Q76.4,35.88,78,34.68c-.36-.48-.71-1-1.1-1.42A2.94,2.94,0,0,0,77,34.44a6.93,6.93,0,0,1-1.52,1.28l-1.75-2.36,1.4-1a2.24,2.24,0,0,0,.75.39,3.23,3.23,0,0,0-1.43-1.82c.09.28.18.56.28.84-.46.38-.93.73-1.4,1.08l-1.47-2a7.5,7.5,0,0,1,1.62-1.05.93.93,0,0,0,.87.38c-.31-.45-.63-.88-1-1.32-1.07.82-2.16,1.62-3.24,2.42m25.37.37A37.16,37.16,0,1,0,119.74,37,37.17,37.17,0,0,0,95.5,31.66m35.92.91c0,.39.25.72.22,1.1-.7.85-1.53,1.58-2.29,2.37a25.17,25.17,0,0,1-2.17,2.09l-.86-.5a11.11,11.11,0,0,0,2.3,2.55c.56-.11-.26-.76-.33-1.08L130,37.36l.6.59a21.28,21.28,0,0,0-.39,3.17c0,1,.9,1.51,1.52,2.11,0-.57-.36-1.06-.35-1.63,0-1.07.18-2.14.29-3.21a3,3,0,0,0,2.47-.77,1.85,1.85,0,0,0-.15-2.48c-.83-.9-1.69-1.76-2.6-2.57M65,37.23a2.18,2.18,0,0,0,2.59,1.67c1,0,2.13-.54,2.9.27S70,41.51,69,41c-.37-.15-.73-.32-1.1-.44a5.29,5.29,0,0,0,1.47,1.62,3.5,3.5,0,0,0,2.18-2.65,2.18,2.18,0,0,0-2.09-2.28c-1.06-.14-2.13.39-3.18.1-.85-.39-.48-1.56.27-1.84.56-.33,1.11.36,1.68.1-.41-.43-.85-.85-1.29-1.26-1,.61-2.08,1.58-1.94,2.87m-3.47,3a12.45,12.45,0,0,0-1.35,2.31c.47-.15.86-.84,1.38-.49,1.24.7,2.42,1.49,3.63,2.22-2.19.5-4.39,1-6.59,1.45a1.72,1.72,0,0,0-.89.47c1.81,1.19,3.71,2.27,5.53,3.45.51.28.2.91.25,1.36a18.31,18.31,0,0,0,1.63-2.6c-.44,0-.67.42-1,.66a2.11,2.11,0,0,1-.92-.37L60.06,46.8l5.67-1.28a2.76,2.76,0,0,0,1.73-.7c-1.3-.82-2.61-1.62-3.91-2.43a8.67,8.67,0,0,1-2-1.39c0-.24.47-.9-.07-.73M135.68,43c-.15.9.09,2.15-.87,2.68s-2.16-1-1.44-1.88c.19-.33.66-.6.44-1-.54.36-1.08.74-1.63,1.1a3.05,3.05,0,0,0,2.71,2.85,2.4,2.4,0,0,0,2.18-2.3c.19-.86-.08-1.9.54-2.61s1.48,0,1.62.72-.31,1-.6,1.44c.64.26,1.11-.53,1.64-.77-.36-1.18-1.22-2.55-2.62-2.51a2.33,2.33,0,0,0-2,2.32M142,46.3c0,.35.33.87-.08,1.1-1.31.72-2.68,1.31-4,2a6.14,6.14,0,0,1-1.54.65c-.21-.23-.41-.46-.6-.7,0,.11,0,.33,0,.44a29.47,29.47,0,0,0,1.34,2.7c.52.13-.05-.74,0-1a11.55,11.55,0,0,1,2-1.09c1.22-.57,2.41-1.24,3.66-1.76a4.25,4.25,0,0,1,.66.68c0-.08.07-.23.09-.31-.27-.73-.66-1.42-1-2.13a1.07,1.07,0,0,0-.53-.54M56.84,51.39a4.47,4.47,0,0,0-2.49,5A4,4,0,0,0,59.65,59a4.29,4.29,0,0,0,2.26-4.64,4.06,4.06,0,0,0-5.07-3m86.45,1c.24.41.8.25,1.1.56A9.78,9.78,0,0,1,145,54.7l-6,1.75-.41-.73-.31.06c.31,1.07.62,2.13.95,3.2l.27-.13c0-.4-.36-1.06.26-1.15,1.86-.58,3.75-1.11,5.62-1.67a6.64,6.64,0,0,1,.43,1.85c-.21.31-.55.55-.61.95.51-.2,1-.43,1.52-.65-.59-2-1.19-4-1.77-6-.55.08-1.09.15-1.63.26M52.75,62.85l.54-.55c1,.51,1.83,1.17,2.73,1.77-1,.46-2,.93-3,1.36l-.49-.5c-.11,1-.22,2-.26,3,.41-.3.54-.86,1-1.11.87-.53,1.81-.94,2.72-1.39s2.07-.23,3.09-.12c.52,0,.41.68.61,1a12.2,12.2,0,0,0,.42-3.53c-.39.33-.35,1.24-1,1.1-1-.1-2.16,0-3-.68s-1.61-1.13-2.35-1.78c-.42-.31-.42-.87-.58-1.32a6.56,6.56,0,0,0-.38,2.76m94.17-2.71c-.21,1.53-1.82,2.1-2.84,3-.86.81-2.09.77-3.2.84-.5.1-.53-.58-.73-.87-.3.6,0,1.28,0,1.91s0,1.19.37,1.63c.12-.41-.07-1.18.54-1.23a8.75,8.75,0,0,1,2.55-.16,25.24,25.24,0,0,1,3,1.4c.57.24.79.86,1.19,1.3,0-.9-.14-1.78-.21-2.67l-.57.51a24,24,0,0,1-2.94-1.18c.9-.65,1.8-1.31,2.74-1.91l.52.42a9.29,9.29,0,0,0-.44-3M57.77,79.37A1.45,1.45,0,1,0,60,80.43a1.46,1.46,0,0,0-2.22-1.06m83.88,0a1.47,1.47,0,1,0,1.88,1.7,1.48,1.48,0,0,0-1.88-1.7M128.93,96.88l.77.69c1.13-1.31,2.22-2.66,3.33-4l4.28,3.55c-.22.25-.43.51-.64.76L134.44,96l-.83,1,2.24,1.86-.42.49-2.23-1.85c-.34.4-.67.81-1,1.21l.61,0,1.85,1.52-.94,1.16.82.66,5-6-.79-.68-.55.62c-1.67-1.42-3.38-2.81-5.06-4.21l-4.16,5m-64.06-4.2a2.44,2.44,0,0,0-.1,3.42,2.9,2.9,0,0,0,2.12.92c.36.41.72.81,1.07,1.22-.54.48-1.08,1-1.61,1.44l.89,1,4.51-3.93c-.37-.42-.74-.84-1.09-1.27a5.47,5.47,0,0,1-.53,1A13.44,13.44,0,0,1,69,95.1a5.45,5.45,0,0,0-.55-1.77,2.46,2.46,0,0,0-3.56-.65m-1.56,2.74c-.3.92-1.21,1.38-1.86,2l4.16,4.78.81-.68-3.29-3.78,1.24-1.08c-.36-.41-.72-.83-1.06-1.26M119,103.83a1.62,1.62,0,0,1,.72.72c.56,1.13,1.1,2.28,1.65,3.41l1.21-.58c-.22-.46-.44-.91-.65-1.36l1.18-.56c-.15-.29-.28-.58-.42-.86l-1.17.57c-.33-.7-.67-1.4-1-2.09l-1.51.75m-39.6-.47c.07.38.26.79,0,1.15a6.75,6.75,0,0,1-3.71,2.94c.1.27.21.54.32.81a10.93,10.93,0,0,0,2.27-.86,12.94,12.94,0,0,1,.75,2.51l1.1-.63a15.18,15.18,0,0,0-1-2.43,7.74,7.74,0,0,0,2.11-2.64l-1.84-.85m37.42,1.8c-.1-.22-.21-.42-.31-.63l-1.52.73c.23.15.45.31.67.47-.62.28-1.23.57-1.84.87.14.32.3.63.44,1l.73-.36a2.1,2.1,0,0,0,.68,2.33,2.53,2.53,0,0,0,3.83-1.71,2,2,0,0,0-1.39-2.11l.83-.39-.45-1-1.67.8m-34.24-.59a4.1,4.1,0,0,1-.68,2.2l-1.25-.58c-.15.32-.3.64-.44,1l1.26.58c-.7,1.5-1.39,3-2.08,4.51l1.09.51L84,105.22c-.46-.21-.92-.42-1.36-.65m1.83.86c-1.15,2.52-2.31,5-3.46,7.54l1.23.55q1.72-3.76,3.46-7.52l-1.23-.57M116.68,111l.48,1c1.64-.84,3.32-1.6,5-2.41.26.53.52,1.07.77,1.6l1.22-.58c-.4-.85-.81-1.71-1.23-2.56l-6.21,3m-16.33-2.42a2.21,2.21,0,0,1,.28,1.06c0,1.51,0,3,0,4.54-1,0-2.1,0-3.15,0v-4.36h2.1v-1c-1.25,0-2.5,0-3.75,0a2.13,2.13,0,0,1,.32,1.1c0,1.78,0,3.56,0,5.34h4.48v1.64c.42,0,.83,0,1.25,0v-5h.59v5h1.33c0-2.76,0-5.51,0-8.26h-1.33v2.24h-.59v-2.24l-1.53,0M130.48,36.9c.76-.75,1.49-1.53,2.27-2.27.31.42.76.86.65,1.44a2.16,2.16,0,0,1-1.5,1.63c-.63.22-1-.44-1.42-.8m-40.2,5.77a36.9,36.9,0,0,0,9.8-5.25c6.17,4.71,13.85,7.07,21.5,7.92a52.93,52.93,0,0,0,5.34.3c0,6.46,0,12.92,0,19.38a53.13,53.13,0,0,1-.56,7,145.7,145.7,0,0,0-52.59,0,51.16,51.16,0,0,1-.57-7.91V45.64a51.43,51.43,0,0,0,17.07-3m7.94,3a10.69,10.69,0,1,0,7.64,1.54,10.73,10.73,0,0,0-7.64-1.54m18.88,7.7c.08,1.48,2,1.68,2.46,3,0,.76-.48,1.82-1.42,1.69.29-.55.8-1.06.74-1.72-.38-.77-1.31-1-1.85-1.65a2.09,2.09,0,0,1-.42-1.37c-.5.61-1.22,1.22-1.2,2.09.43,1,1.93,1.36,2.07,2.58-.52,0-1,0-1.54,0,.13.45.27.89.4,1.34,1.43,0,2.87,0,4.3,0,.15-.45.29-.89.43-1.34l-1.17,0c.66-.78,1.67-1.58,1.57-2.7-.6-1.08-1.9-1.56-2.5-2.64-.22-.58.1-1.18.21-1.75-.8.71-1.8,1.38-2.08,2.48M78.27,54.91c-.09,1.84-.08,3.7,0,5.54.9,0,1.8,0,2.7,0a34.72,34.72,0,0,0,0-5.2c-.67-.68-1.83-.19-2.7-.35m3.82.07c-.47.13-.39.71-.41,1.08,0,1.46,0,2.92,0,4.38.93,0,1.85,0,2.78,0,0-1.81,0-3.62,0-5.44a11.61,11.61,0,0,0-2.43,0m-5.18.83c-.08,1.93-.07,3.86,0,5.78,1.09,0,2.17,0,3.26,0a1.48,1.48,0,0,0,2.43,0c1.07,0,2.14,0,3.2,0,.1-1.89.07-3.79,0-5.68l-.68-.17c0,1.73,0,3.47,0,5.2-1,0-2,0-3.07,0-.2.27-.35.61-.72.65s-.48-.4-.67-.65H77.58c0-1.71,0-3.42,0-5.12h-.67m40.35,4.1c.25,1.47.43,3,.71,4.43,0,.55.69.26,1,.3.24-1.58.48-3.16.75-4.74a10.45,10.45,0,0,0-2.5,0M98.88,50.84a5.43,5.43,0,1,1-4,3.63,5.48,5.48,0,0,1,4-3.63m-42.3,2.08a4.42,4.42,0,0,1,3.39.43,2.36,2.36,0,0,1,1.38,1.77,2.55,2.55,0,0,1-1.7,2.47,4.32,4.32,0,0,1-3.37-.35,2.35,2.35,0,0,1-1.37-1.61,2.51,2.51,0,0,1,1.67-2.71M74.05,73.59a144.42,144.42,0,0,1,52,0A39.09,39.09,0,0,1,117.58,91q-8.74-8.77-17.52-17.54Q91.3,82.22,82.55,91a39.35,39.35,0,0,1-8.5-17.41M86.88,95.34q6.6-6.6,13.17-13.22c4.42,4.39,8.81,8.81,13.22,13.21a54.81,54.81,0,0,1-13.22,8.33,55.93,55.93,0,0,1-13.17-8.32m8.18-3.08a5,5,0,0,0-1.59,1.19l.91-.24c0,1,0,1.93-.07,2.9-.26.1-.52.22-.78.33a15.89,15.89,0,0,0,2.39,0l-.74-.34a34.87,34.87,0,0,0-.12-3.84m1.54,1c0,.42.35.69.59,1-.4.33-.9.75-.77,1.33.27,1.43,2.84,1.22,2.89-.23.07-.56-.4-.91-.77-1.22.35-.34.75-.78.54-1.3a1.38,1.38,0,0,0-2.48.44m3.66,0c0,.41.34.67.57,1-.45.33-1,.83-.74,1.45.41,1.28,2.78,1.05,2.87-.35.05-.56-.41-.91-.78-1.24a1.22,1.22,0,0,0,.54-1.29c-.5-1-2.41-.72-2.46.46m3.83-.95c-.06.54-.11,1.08-.16,1.62.46.2,1,.31,1.29.76s.06,1.44-.65,1.39c-.5,0-.62-.56-.87-.88,0,.41,0,.82,0,1.23a2.27,2.27,0,0,0,2-.42,1.38,1.38,0,0,0-.16-2.15c-.39-.32-1.16-.29-1.16-.93l1.18,0,.38.45c.06-.36.1-.71.15-1.07l-2,0m-6.75.93c-.11-.45.5-.86.84-.53s.07.85-.09,1.22c-.26-.21-.65-.34-.75-.69m3.66-.18c0-.49.73-.63,1-.22s-.1.74-.24,1.09c-.29-.23-.83-.41-.73-.87m-34.77.24a1.18,1.18,0,0,1,1.54,1.07,1.35,1.35,0,0,1-2.19,1.09,1.31,1.31,0,0,1,.65-2.16m31.45,1.08c.4.31,1.06.69.79,1.29a.66.66,0,0,1-1.21,0c-.29-.5.15-1,.42-1.34m3.89,1.74c-1-.05-.84-1.28-.25-1.75.73.28,1.29,1.49.25,1.75M68,96.62l.5-.47c.28.32.55.64.84,1l-.53.44L68,96.62m48.82,10a1.21,1.21,0,0,1,1.59,1.36,1.14,1.14,0,0,1-1.71.76,1.2,1.2,0,0,1,.12-2.12Z"/><rect class="cls-4" width="200" height="200"/></svg>